<?xml version="1.0" encoding="UTF-8"?>
<svg width="22px" height="23px" viewBox="0 0 22 23" version="1.1" xmlns="http://www.w3.org/2000/svg" xmlns:xlink="http://www.w3.org/1999/xlink">
    <!-- Generator: Sketch 60.1 (88133) - https://sketch.com -->
    <title>Icon24 / cloche-clock</title>
    <desc>Created with Sketch.</desc>
    <g id="AU" stroke="none" stroke-width="1" fill="none" fill-rule="evenodd">
        <g id="AU_Homepage-A" transform="translate(-839.000000, -1795.000000)">
            <g id="Group-24" transform="translate(832.000000, 1788.000000)">
                <g id="Group-18">
                    <g id="Icon24-/-veggie" transform="translate(5.000000, 5.000000)">
                        <g id="veggie" stroke-width="1" fill-rule="evenodd" transform="translate(2.250000, 2.250000)" fill="#659A41">
                            <path d="M21.3811496,0.47263412 C21.2573995,3.92638412 20.5936495,11.9251341 17.0611495,16.6388841 C16.4603869,17.4835613 15.7182251,18.2181112 14.8673995,18.8101341 L14.8673995,18.8101341 C14.7211495,18.9226341 14.5523995,19.0126341 14.3948995,19.1138841 L14.1811495,19.2488841 L14.1811495,19.2488841 C12.8451354,19.9880798 11.3430229,20.3752223 9.81614954,20.3738841 C9.2538381,20.3711236 8.69288343,20.3184165 8.13989954,20.2163841 C6.50884525,19.9012974 5.00426223,19.1196959 3.80864954,17.9663841 C2.99488936,19.285551 2.26228135,20.653086 1.61489954,22.0613841 C1.47315933,22.3554533 1.17633943,22.5431482 0.849899542,22.5452553 C0.725401748,22.547303 0.602121043,22.5203354 0.489899542,22.4663841 C0.284537111,22.3736545 0.125534562,22.2016396 0.0492117234,21.9896317 C-0.0271111147,21.7776239 -0.0142347568,21.5437326 0.0848995418,21.3413841 C4.60739954,11.7563841 10.2323995,8.32513412 15.2048995,5.86138412 C15.621318,5.65843982 16.1234829,5.82917588 16.3298995,6.24388412 C16.4305075,6.44343796 16.4466587,6.67506236 16.3747196,6.88664794 C16.3027805,7.09823352 16.1487928,7.27201068 15.9473995,7.36888412 C11.4481716,9.37115337 7.57866135,12.5600965 4.75364954,16.5938841 C5.75294374,17.6168927 7.04000299,18.3114338 8.44364954,18.5851341 C8.89686054,18.6648692 9.3559854,18.7062657 9.81614954,18.7088841 C11.0542844,18.7060522 12.2708352,18.3844798 13.3486495,17.7751341 L13.4048995,17.7751341 L13.5173995,17.7076341 L13.8773995,17.4826341 L13.8773995,17.4826341 C14.5866621,16.9755724 15.1967802,16.3425749 15.6773995,15.6151341 C18.2873995,12.2401341 19.2323995,6.61513412 19.5361495,2.92513412 C17.0273995,4.19638412 14.0123995,4.25263412 11.6611495,4.28638412 C11.0311495,4.28638412 10.4348995,4.28638412 9.95114954,4.34263412 C5.54114954,4.66888412 2.35739954,7.96513412 2.64989954,11.9926341 C2.68706337,12.4563269 2.76613619,12.9157023 2.88614954,13.3651341 C2.46989954,13.9163841 2.07614954,14.4901341 1.69364954,15.0751341 C1.27798499,14.1440518 1.03406281,13.1454954 0.973649542,12.1276341 C0.647399542,6.93013412 4.74239954,3.06013412 9.81614954,2.68888412 C12.5836495,2.47513412 17.6911495,3.06013412 20.5148995,0.15763412 C20.6157209,0.0553695023 20.7538016,-0.0014872504 20.8973995,0 C21.024652,-0.00289656469 21.1477448,0.0455433787 21.238804,0.134484928 C21.3298632,0.223426477 21.3811496,0.345345564 21.3811496,0.47263412 L21.3811496,0.47263412 Z"></path>
                        </g>
                        <rect id="Rectangle" x="0" y="0" width="27" height="27"></rect>
                    </g>
                </g>
            </g>
        </g>
    </g>
</svg>